<svg version="1" xmlns="http://www.w3.org/2000/svg" width="346.667" height="346.667" viewBox="0 0 260.000000 260.000000"><path d="M5.8 1.6C-.3 4.9 0-2.5 0 130c0 133-.4 125.2 6 128.5 2.5 1.3 17.7 1.5 124 1.5 133 0 125.2.4 128.5-6 1.3-2.5 1.5-17.7 1.5-124 0-133 .4-125.2-6-128.5C251.5.2 236.3 0 129.8 0 24.5.1 8.1.3 5.8 1.6zm97.4 73l.3 38.5 28-38.5 28-38.6h23.3c18.4 0 23.2.3 22.6 1.2-.4.7-12.6 16.9-27 35.9s-26.7 35.4-27.4 36.5c-1 1.7 2.9 8.8 31.6 56.9 17.9 30.2 32.9 55.6 33.1 56.3.4 1-4.3 1.2-22.7 1l-23.3-.3-21.4-37c-11.8-20.4-22-38-22.7-39.3-1.1-2.2-1.7-1.6-11.9 11.9L103 173.3V224H60V36h43l.2 38.6z"/></svg>